<?xml version="1.0" encoding="UTF-8" standalone="no"?>
<!DOCTYPE svg PUBLIC "-//W3C//DTD SVG 1.1//EN" "http://www.w3.org/Graphics/SVG/1.1/DTD/svg11.dtd">
<svg xmlns="http://www.w3.org/2000/svg" version="1.1" viewBox="0.00 0.00 256.00 256.00">
<g stroke-width="2.00" fill="none" stroke-linecap="butt">
<path stroke="#747473" vector-effect="non-scaling-stroke" d="
  M 101.85 50.22
  Q 101.87 50.39 101.93 50.53
  A 0.59 0.58 82.1 0 0 102.43 50.91
  Q 102.73 50.93 103.03 50.82"
/>
<path stroke="#747473" vector-effect="non-scaling-stroke" d="
  M 103.79 50.70
  L 105.20 50.54"
/>
<path stroke="#747473" vector-effect="non-scaling-stroke" d="
  M 112.04 49.63
  L 113.95 49.52"
/>
<path stroke="#747473" vector-effect="non-scaling-stroke" d="
  M 119.53 49.16
  L 120.21 49.14"
/>
<path stroke="#747473" vector-effect="non-scaling-stroke" d="
  M 120.47 49.13
  Q 121.22 49.23 121.81 49.03"
/>
<path stroke="#747473" vector-effect="non-scaling-stroke" d="
  M 152.52 50.85
  Q 153.11 51.04 153.56 50.78"
/>
<path stroke="#a4a4a2" vector-effect="non-scaling-stroke" d="
  M 153.79 49.79
  Q 154.22 49.04 154.25 48.24"
/>
<path stroke="#747473" vector-effect="non-scaling-stroke" d="
  M 240.93 85.16
  L 240.92 86.51"
/>
<path stroke="#747473" vector-effect="non-scaling-stroke" d="
  M 230.08 113.25
  L 229.69 113.20
  A 0.21 0.20 -80.5 0 0 229.47 113.36
  Q 229.44 113.48 229.40 113.63"
/>
<path stroke="#a4a4a2" vector-effect="non-scaling-stroke" d="
  M 238.05 139.82
  Q 237.13 140.06 235.97 139.90"
/>
<path stroke="#747473" vector-effect="non-scaling-stroke" d="
  M 231.04 187.37
  L 229.97 187.36"
/>
<path stroke="#747473" vector-effect="non-scaling-stroke" d="
  M 128.74 254.89
  Q 128.42 254.79 127.95 254.89"
/>
<path stroke="#a4a4a2" vector-effect="non-scaling-stroke" d="
  M 91.71 235.10
  Q 91.41 234.16 90.70 234.02"
/>
<path stroke="#747473" vector-effect="non-scaling-stroke" d="
  M 88.91 236.20
  L 89.00 237.45"
/>
<path stroke="#a4a4a2" vector-effect="non-scaling-stroke" d="
  M 89.29 239.26
  Q 89.22 239.84 89.45 240.25"
/>
<path stroke="#747473" vector-effect="non-scaling-stroke" d="
  M 89.54 240.54
  L 89.65 241.23"
/>
<path stroke="#747473" vector-effect="non-scaling-stroke" d="
  M 89.86 242.21
  L 89.97 243.05"
/>
<path stroke="#747473" vector-effect="non-scaling-stroke" d="
  M 89.97 243.05
  Q 89.89 243.58 90.13 244.06"
/>
<path stroke="#747473" vector-effect="non-scaling-stroke" d="
  M 57.98 231.34
  L 55.89 231.38"
/>
<path stroke="#747473" vector-effect="non-scaling-stroke" d="
  M 25.68 187.30
  L 24.50 187.35"
/>
<path stroke="#838380" vector-effect="non-scaling-stroke" d="
  M 19.15 140.03
  L 17.67 139.88"
/>
<path stroke="#363635" vector-effect="non-scaling-stroke" d="
  M 237.72 139.96
  L 236.79 140.08"
/>
<path stroke="#838380" vector-effect="non-scaling-stroke" d="
  M 34.69 175.19
  Q 34.83 175.27 34.91 175.32
  A 0.23 0.22 -73.5 0 1 35.03 175.55
  C 32.96 193.24 37.17 210.60 49.30 223.62
  Q 52.61 227.18 56.23 229.30
  A 1.19 1.19 0.0 0 0 58.01 228.46
  Q 59.02 222.21 63.34 216.55
  A 0.62 0.61 -32.4 0 1 64.43 216.79
  Q 68.18 233.61 82.66 242.86
  Q 84.40 243.97 86.98 244.88
  A 0.96 0.96 0.0 0 0 88.23 243.74
  Q 86.31 236.11 86.93 227.75"
/>
<path stroke="#747473" vector-effect="non-scaling-stroke" d="
  M 86.93 227.75
  Q 102.32 243.98 122.37 251.21
  C 125.73 252.42 127.43 253.19 130.44 252.18
  C 144.32 247.51 158.06 239.29 167.83 228.00"
/>
<path stroke="#838380" vector-effect="non-scaling-stroke" d="
  M 167.83 228.00
  L 168.73 228.04"
/>
<path stroke="#747473" vector-effect="non-scaling-stroke" d="
  M 168.73 228.04
  Q 169.17 235.54 168.46 238.48
  Q 167.76 241.41 167.57 244.17
  A 0.81 0.81 0.0 0 0 168.73 244.96
  C 180.62 239.32 187.94 229.38 191.32 216.61
  A 0.53 0.53 0.0 0 1 192.26 216.42
  Q 196.50 222.04 197.77 228.69
  A 0.95 0.94 -20.7 0 0 199.18 229.32
  C 208.82 223.67 215.67 212.19 218.61 201.68
  Q 222.23 188.77 220.36 175.88
  A 0.64 0.64 0.0 0 1 221.48 175.37
  L 229.85 185.03
  A 0.75 0.75 0.0 0 0 231.14 184.72
  Q 232.72 178.43 232.22 171.74
  Q 230.57 149.75 220.85 129.65
  A 0.40 0.39 -88.1 0 1 221.40 129.13
  L 236.70 137.97
  A 0.52 0.52 0.0 0 0 237.47 137.46
  Q 237.06 133.76 235.55 130.41
  Q 231.33 121.01 226.07 111.39
  A 0.45 0.45 0.0 0 1 226.54 110.73
  L 238.65 112.77
  A 0.93 0.93 0.0 0 0 239.67 111.49
  Q 235.02 100.56 227.30 92.34
  A 0.47 0.47 0.0 0 1 227.52 91.56
  C 231.26 90.52 236.72 88.78 238.89 86.27
  A 1.16 1.16 0.0 0 0 238.73 84.59
  Q 233.98 80.92 228.81 79.56
  A 0.61 0.61 0.0 0 1 228.45 78.64
  C 233.35 71.13 235.26 61.31 235.58 52.43"
/>
<path stroke="#838380" vector-effect="non-scaling-stroke" d="
  M 235.58 52.43
  Q 236.08 49.06 236.05 45.51
  Q 235.89 28.36 232.33 12.01
  C 231.50 8.21 229.82 2.82 225.01 2.77
  C 217.81 2.68 209.84 6.40 203.89 9.88
  Q 186.54 20.01 173.01 35.03
  Q 172.60 35.47 172.22 35.39"
/>
<path stroke="#747473" vector-effect="non-scaling-stroke" d="
  M 172.22 35.39
  L 171.11 28.57
  A 1.61 1.61 0.0 0 0 168.63 27.49
  C 161.86 32.02 157.02 44.65 155.15 52.30
  A 1.15 1.15 0.0 0 1 153.86 53.16
  Q 127.82 48.94 101.23 53.04
  A 0.67 0.66 78.9 0 1 100.48 52.53
  Q 97.66 40.14 90.04 30.25
  Q 88.54 28.31 86.62 27.50
  A 1.51 1.51 0.0 0 0 84.62 28.34
  Q 83.49 31.21 83.61 34.98
  A 0.44 0.44 0.0 0 1 82.84 35.29
  Q 70.27 21.30 54.30 11.45
  C 47.31 7.13 37.77 2.13 29.48 2.84
  C 26.36 3.11 24.33 7.53 23.69 10.20
  Q 18.54 31.63 19.96 53.78
  Q 20.85 67.52 27.17 78.94
  A 0.43 0.43 0.0 0 1 26.92 79.57
  C 24.57 80.29 16.22 83.38 16.64 86.03
  Q 16.77 86.81 18.28 87.62
  Q 22.35 89.81 27.59 91.43
  A 0.78 0.78 0.0 0 1 27.94 92.69
  Q 20.14 101.30 15.77 111.99
  A 0.61 0.61 0.0 0 0 16.44 112.82
  L 29.35 110.63
  A 0.32 0.32 0.0 0 1 29.68 111.10
  Q 24.80 120.14 20.94 128.20
  Q 18.94 132.36 18.06 137.23
  A 0.59 0.59 0.0 0 0 18.93 137.84
  L 33.89 129.21
  A 0.55 0.55 0.0 0 1 34.66 129.93
  C 26.94 145.77 22.08 164.45 23.65 181.92
  Q 23.83 183.86 24.44 184.81
  A 1.08 1.08 0.0 0 0 26.16 184.94
  L 34.69 175.19"
/>
<path stroke="#161613" vector-effect="non-scaling-stroke" d="
  M 172.22 35.39
  L 171.90 35.34
  A 0.51 0.49 82.5 0 1 171.51 35.03
  L 169.32 29.41
  A 0.37 0.37 0.0 0 0 168.75 29.25
  Q 165.94 31.34 164.38 33.87
  Q 159.11 42.42 157.02 50.96
  A 2.13 2.10 -18.0 0 1 156.60 51.77
  L 154.94 53.75
  A 1.62 1.61 -68.8 0 1 153.64 54.33
  Q 148.69 54.18 146.17 53.39
  A 5.13 4.84 51.9 0 0 144.71 53.17
  L 134.17 53.17
  A 0.32 0.32 0.0 0 0 134.07 53.80
  L 141.80 56.39
  A 2.84 2.83 -77.4 0 1 143.71 59.41
  Q 143.34 62.47 142.20 66.51
  Q 141.81 67.88 141.20 76.88
  A 4.96 4.67 -35.7 0 1 140.97 78.06
  L 140.32 79.99
  A 5.59 5.56 51.0 0 0 140.07 82.43
  Q 140.99 89.85 138.23 95.86"
/>
<path stroke="#828281" vector-effect="non-scaling-stroke" d="
  M 138.23 95.86
  Q 138.63 76.60 142.40 58.16
  A 0.51 0.51 0.0 0 0 141.94 57.55
  Q 127.87 56.68 113.60 57.56
  A 0.47 0.47 0.0 0 0 113.17 58.12
  Q 117.10 78.73 117.54 97.49
  Q 117.87 111.55 114.66 123.30
  Q 112.27 132.06 106.10 139.15"
/>
<path stroke="#161613" vector-effect="non-scaling-stroke" d="
  M 106.10 139.15
  Q 112.25 128.81 114.42 118.28
  Q 115.16 114.67 115.44 113.12
  Q 115.91 110.53 115.91 107.93
  Q 115.93 102.45 115.92 87.01
  A 8.64 8.23 40.4 0 0 115.74 85.28
  Q 114.92 81.51 114.97 78.29
  C 115.03 75.33 113.83 72.69 113.87 69.67
  A 4.21 4.08 38.1 0 0 113.70 68.43
  C 113.05 66.29 113.02 62.99 111.89 60.36
  Q 111.02 58.31 113.20 56.60
  A 2.39 2.38 24.1 0 1 114.49 56.11
  C 115.81 56.00 118.70 55.74 119.77 54.67
  A 0.66 0.66 0.0 0 0 119.33 53.54
  L 110.62 53.16
  A 6.84 6.67 35.7 0 0 108.03 53.55
  Q 105.14 54.59 102.00 54.42
  A 2.31 2.21 -27.8 0 1 101.05 54.15
  C 98.16 52.60 98.05 49.78 97.09 46.49
  C 95.55 41.21 91.99 33.35 87.33 29.25
  A 1.23 1.23 0.0 0 0 85.31 29.93
  C 85.10 30.95 85.26 34.53 84.36 35.66
  A 1.58 1.57 43.0 0 1 81.96 35.74
  Q 68.14 20.50 50.41 10.55
  Q 47.29 8.80 43.16 7.06
  C 39.59 5.55 29.03 1.55 26.56 6.11
  C 23.46 11.84 23.29 19.37 22.16 24.88
  A 4.83 4.49 51.7 0 0 22.07 25.98
  Q 22.23 29.69 21.33 32.89
  A 7.15 6.77 53.9 0 0 21.08 34.82
  Q 21.18 42.05 21.03 47.76
  Q 20.91 52.20 21.90 58.47
  C 22.98 65.33 24.67 71.43 27.91 77.68
  A 2.25 2.25 0.0 0 1 26.91 80.72
  C 24.90 81.72 20.92 82.72 18.53 85.08
  A 0.59 0.58 -45.3 0 0 18.53 85.91
  C 21.00 88.38 25.29 89.38 27.67 90.32
  A 2.20 2.20 0.0 0 1 28.49 93.86
  C 24.13 98.63 20.15 103.93 18.16 109.95
  A 0.53 0.53 0.0 0 0 18.58 110.64
  Q 20.99 111.04 21.61 110.86
  Q 25.26 109.79 28.70 109.41
  A 1.89 1.89 0.0 0 1 30.56 112.21
  Q 24.31 123.34 21.57 129.36
  Q 20.03 132.76 20.06 135.00
  A 0.50 0.50 0.0 0 0 20.81 135.42
  L 33.40 128.15
  A 1.73 1.73 0.0 0 1 35.80 130.43
  Q 26.95 147.77 25.22 166.77
  Q 24.61 173.52 25.27 181.77
  A 0.68 0.68 0.0 0 0 26.44 182.19
  Q 29.88 178.66 33.85 174.70
  A 0.69 0.63 -42.4 0 1 34.83 174.70
  Q 35.01 174.92 34.69 175.19"
/>
<path stroke="#161613" vector-effect="non-scaling-stroke" d="
  M 235.58 52.43
  Q 235.24 48.73 234.31 52.82
  Q 233.85 54.84 233.73 57.01
  C 233.50 61.37 232.23 65.03 231.38 69.27
  Q 230.51 73.58 227.60 77.66
  A 2.07 2.07 0.0 0 0 228.63 80.82
  C 232.30 82.04 234.67 82.81 236.99 84.99
  A 1.12 1.12 0.0 0 1 236.63 86.85
  L 227.10 90.57
  A 1.71 1.71 0.0 0 0 226.53 93.39
  Q 233.23 99.88 237.46 110.01
  A 0.47 0.47 0.0 0 1 237.13 110.65
  C 234.19 111.32 230.06 110.07 227.31 109.51
  A 2.11 2.11 0.0 0 0 225.10 112.68
  Q 229.87 120.38 234.06 130.45
  Q 234.80 132.23 235.33 134.64
  A 0.38 0.38 0.0 0 1 234.84 135.09
  Q 232.96 134.47 230.75 132.79
  A 0.14 0.11 -7.0 0 0 230.70 132.76
  L 222.05 128.02
  A 1.09 1.07 44.5 0 0 221.02 128.02
  Q 218.68 129.30 220.05 131.42
  C 223.45 136.72 224.01 140.10 226.84 148.77
  C 228.36 153.44 229.41 159.90 229.78 163.65
  Q 229.95 165.42 230.63 167.23
  A 2.95 2.71 -61.0 0 1 230.80 167.94
  Q 231.73 175.55 230.03 182.13
  A 0.41 0.41 0.0 0 1 229.32 182.30
  Q 226.89 179.55 222.43 174.96
  A 1.99 1.92 -47.6 0 0 219.52 175.14
  Q 218.84 175.96 219.22 177.52
  C 221.06 185.17 219.08 195.25 216.89 203.09
  Q 214.60 211.30 207.88 220.18
  C 205.39 223.48 203.07 226.16 199.71 227.57
  A 0.91 0.90 -13.0 0 1 198.45 226.79
  C 198.27 223.35 195.88 220.07 193.38 216.06
  A 1.22 1.18 81.7 0 0 192.72 215.55
  Q 190.52 214.86 190.06 216.60
  Q 187.55 226.08 182.08 233.11
  Q 177.64 238.82 172.71 241.68
  Q 170.99 242.69 169.83 242.84
  A 0.71 0.71 0.0 0 1 169.04 241.97
  Q 170.63 235.18 169.77 228.21
  A 0.40 0.40 0.0 0 0 169.50 227.88
  Q 169.11 227.74 168.73 228.04"
/>
<path stroke="#161613" vector-effect="non-scaling-stroke" d="
  M 167.83 228.00
  Q 167.79 227.65 167.66 227.59
  Q 167.12 227.33 166.66 227.77
  C 163.41 230.90 160.61 234.26 156.77 237.04
  Q 146.55 244.45 134.93 249.11
  Q 131.93 250.31 128.64 250.83
  Q 127.63 250.99 127.28 250.64
  A 0.11 0.11 0.0 0 1 127.38 250.45
  Q 127.40 250.45 127.57 250.54
  A 0.77 0.76 40.9 0 0 128.37 250.49
  Q 129.54 249.69 130.36 249.38
  Q 130.75 249.23 131.13 249.34
  Q 131.72 249.50 131.89 249.18
  C 132.20 248.56 134.75 247.57 136.69 246.56
  Q 137.35 246.23 137.72 246.28
  Q 138.32 246.37 138.67 245.93
  Q 139.01 245.50 139.85 245.05
  Q 146.21 241.68 150.84 238.74
  A 3.92 3.49 3.3 0 0 151.51 238.21
  Q 153.03 236.69 154.49 236.06
  A 1.87 1.85 -82.3 0 0 155.24 235.48
  Q 156.08 234.39 160.37 231.16
  Q 163.75 228.61 167.09 223.74
  A 1.46 0.68 -34.0 0 1 167.20 223.60
  L 168.70 222.06
  A 1.12 1.12 0.0 0 1 170.59 222.55
  L 172.01 227.85
  A 1.92 1.69 41.3 0 1 172.07 228.31
  L 172.04 235.74
  A 1.82 1.81 -3.2 0 0 174.07 237.55
  Q 174.53 237.51 175.62 236.60
  Q 177.44 235.06 178.57 233.98
  A 4.85 4.61 -7.5 0 0 179.28 233.10
  Q 180.66 230.83 182.34 229.18
  A 3.33 3.31 -8.0 0 0 182.94 228.39
  Q 186.07 222.76 187.63 216.08
  A 3.96 3.80 53.3 0 0 187.75 215.12
  Q 187.77 210.88 188.71 207.63
  A 0.66 0.66 0.0 0 1 189.78 207.33
  Q 196.79 213.65 199.57 222.98
  A 0.34 0.34 0.0 0 0 200.11 223.15
  Q 201.26 222.23 201.89 222.33
  A 0.67 0.67 0.0 0 0 202.59 221.99
  Q 204.93 217.76 205.14 215.98
  Q 205.72 210.87 203.85 203.82
  C 201.75 195.85 198.13 187.87 192.33 181.76
  C 187.77 176.96 183.46 173.03 177.24 172.31
  Q 173.76 171.91 171.61 175.04
  A 2.46 2.45 67.1 0 0 171.21 176.03
  C 170.09 183.23 165.75 188.28 159.36 191.67
  A 4.89 4.86 87.7 0 0 157.14 194.09
  C 156.14 196.46 155.68 197.83 154.57 199.74
  Q 148.82 209.59 137.99 212.90
  Q 134.51 213.97 129.44 214.04
  Q 122.66 214.14 120.78 213.73
  Q 106.55 210.68 100.24 197.75
  A 2.76 2.52 -66.3 0 1 100.01 197.07
  Q 99.64 195.28 98.47 193.14
  A 0.72 0.69 -88.9 0 0 98.22 192.87
  L 90.59 187.73
  A 1.77 1.68 87.8 0 1 90.16 187.31
  L 86.66 182.57
  A 0.94 0.89 -77.1 0 1 86.53 182.35
  L 83.36 174.63
  A 1.59 1.59 0.0 0 0 82.91 174.02
  C 75.52 168.13 64.13 180.17 60.29 185.80
  Q 53.50 195.73 50.77 207.17
  A 4.36 4.30 50.9 0 0 50.65 208.41
  Q 50.81 211.84 50.51 212.84
  A 2.36 2.31 -41.3 0 0 50.44 213.77
  Q 51.12 219.26 52.94 222.81
  A 1.82 1.82 0.0 0 0 56.31 222.45
  Q 57.89 216.65 62.01 211.49
  Q 63.54 209.57 65.74 208.27"
/>
<path stroke="#464642" vector-effect="non-scaling-stroke" d="
  M 65.74 208.27
  Q 65.94 208.53 66.26 208.52"
/>
<path stroke="#161613" vector-effect="non-scaling-stroke" d="
  M 66.26 208.52
  C 67.50 212.32 68.08 216.99 69.13 220.03
  Q 72.72 230.38 81.12 237.79
  A 0.88 0.87 -33.3 0 0 81.96 237.96
  Q 84.17 237.26 84.20 234.03
  Q 84.24 230.37 84.09 225.48
  A 1.38 1.36 -32.1 0 1 84.25 224.80
  L 85.54 222.21
  A 0.95 0.94 37.9 0 1 87.10 222.02
  L 94.94 231.08
  A 0.11 0.11 0.0 0 1 94.88 231.27
  Q 94.72 231.30 94.63 231.18
  Q 94.14 230.51 93.64 230.58
  A 0.36 0.36 0.0 0 0 93.43 231.19
  L 94.86 232.60
  A 0.09 0.07 39.3 0 1 94.88 232.70
  L 94.72 232.97
  A 0.23 0.23 0.0 0 1 94.38 233.04
  C 92.78 231.82 90.62 230.24 89.56 228.55
  Q 89.03 227.69 86.93 227.75"
/>
<path stroke="#91918f" vector-effect="non-scaling-stroke" d="
  M 106.10 139.15
  Q 103.52 142.46 95.98 149.97
  Q 92.00 153.93 89.17 160.68
  C 85.77 168.80 86.09 177.70 92.35 184.05
  C 100.48 192.30 114.00 191.68 122.09 183.81
  Q 124.42 181.54 125.55 177.46
  A 1.42 1.42 0.0 0 0 124.41 175.69
  Q 115.89 174.31 112.03 166.75
  C 109.83 162.43 108.45 155.73 111.29 151.73
  C 114.66 146.99 120.62 145.66 126.74 145.49
  C 134.55 145.27 145.14 147.31 145.87 156.21
  C 146.61 165.20 140.85 174.22 131.38 175.63
  A 1.55 1.54 -12.5 0 0 130.12 177.60
  Q 131.91 183.55 137.32 186.75
  C 151.49 195.13 170.44 186.13 168.51 168.32
  C 167.47 158.66 161.66 151.45 154.53 144.79
  C 148.07 138.75 143.37 131.55 141.00 123.25
  Q 137.21 110.03 138.23 95.86"
/>
<path stroke="#363635" vector-effect="non-scaling-stroke" d="
  M 66.26 208.52
  Q 66.49 208.24 66.58 208.01
  A 0.26 0.26 0.0 0 0 66.14 207.76
  L 65.74 208.27"
/>
<path stroke="#91918f" vector-effect="non-scaling-stroke" d="
  M 78.32 102.35
  A 1.21 1.21 0.0 0 0 80.00 103.58
  C 86.49 100.85 91.01 98.68 98.49 100.62
  A 1.69 1.69 0.0 0 0 100.58 99.22
  L 100.60 99.07
  A 2.36 2.35 13.5 0 0 99.03 96.52
  Q 88.85 93.04 80.11 99.60
  Q 78.46 100.84 78.32 102.35"
/>
<path stroke="#91918f" vector-effect="non-scaling-stroke" d="
  M 177.40 102.33
  Q 177.26 100.82 175.61 99.59
  Q 166.88 93.05 156.71 96.53
  A 2.35 2.34 -13.5 0 0 155.15 99.08
  L 155.17 99.23
  A 1.68 1.68 0.0 0 0 157.26 100.62
  C 164.72 98.68 169.24 100.84 175.72 103.56
  A 1.21 1.21 0.0 0 0 177.40 102.33"
/>
<path stroke="#91918f" vector-effect="non-scaling-stroke" d="
  M 97.08 118.64
  A 4.77 4.77 0.0 0 0 92.31 113.87
  A 4.77 4.77 0.0 0 0 87.54 118.64
  A 4.77 4.77 0.0 0 0 92.31 123.41
  A 4.77 4.77 0.0 0 0 97.08 118.64"
/>
<path stroke="#91918f" vector-effect="non-scaling-stroke" d="
  M 167.97 118.66
  A 4.75 4.75 0.0 0 0 163.22 113.91
  A 4.75 4.75 0.0 0 0 158.47 118.66
  A 4.75 4.75 0.0 0 0 163.22 123.41
  A 4.75 4.75 0.0 0 0 167.97 118.66"
/>
<path stroke="#464642" vector-effect="non-scaling-stroke" d="
  M 127.81 155.14
  Q 133.14 155.14 140.13 156.61
  A 0.58 0.57 84.8 0 0 140.78 155.82
  C 139.03 151.59 132.22 150.60 127.81 150.60
  C 123.39 150.60 116.58 151.59 114.84 155.83
  A 0.58 0.57 -84.8 0 0 115.49 156.61
  Q 122.48 155.14 127.81 155.14"
/>
<path stroke="#91918f" vector-effect="non-scaling-stroke" d="
  M 127.84 210.55
  C 137.69 210.55 147.05 204.78 151.39 195.88
  A 0.42 0.42 0.0 0 0 150.98 195.28
  Q 136.67 196.69 128.19 185.54
  Q 128.07 185.38 127.84 185.38
  Q 127.61 185.38 127.49 185.54
  Q 119.00 196.69 104.70 195.28
  A 0.42 0.42 0.0 0 0 104.28 195.88
  C 108.62 204.78 117.99 210.55 127.84 210.55"
/>
<path stroke="#828281" vector-effect="non-scaling-stroke" d="
  M 127.86 248.53
  Q 128.20 248.53 128.56 248.32
  Q 129.06 248.01 129.20 247.96
  Q 152.70 239.92 167.74 221.31
  A 2.47 2.40 3.5 0 1 168.38 220.76
  Q 170.83 219.27 171.77 221.98
  Q 173.94 228.22 173.24 236.15
  A 0.42 0.42 0.0 0 0 173.92 236.52
  C 183.06 229.18 187.49 218.06 187.31 206.51
  A 1.19 1.18 -70.9 0 1 189.24 205.57
  Q 197.03 211.90 200.41 221.70
  A 0.68 0.68 0.0 0 0 201.65 221.81
  C 207.86 210.37 199.62 192.34 192.40 183.40
  C 188.61 178.70 180.40 171.32 173.99 174.27
  A 2.14 2.12 -6.7 0 0 172.81 175.75
  Q 170.29 187.52 159.52 192.69
  A 2.73 2.71 -3.4 0 0 158.14 194.23
  C 153.41 207.63 142.36 215.58 127.86 215.58
  C 113.36 215.58 102.31 207.63 97.58 194.23
  A 2.73 2.71 3.4 0 0 96.20 192.69
  Q 85.43 187.52 82.91 175.75
  A 2.14 2.12 6.7 0 0 81.73 174.27
  C 75.32 171.32 67.11 178.70 63.32 183.40
  C 56.10 192.34 47.86 210.37 54.07 221.81
  A 0.68 0.68 0.0 0 0 55.31 221.70
  Q 58.69 211.90 66.48 205.57
  A 1.19 1.18 70.9 0 1 68.41 206.51
  C 68.23 218.06 72.66 229.18 81.80 236.52
  A 0.42 0.42 0.0 0 0 82.48 236.15
  Q 81.78 228.22 83.95 221.98
  Q 84.89 219.27 87.34 220.76
  A 2.47 2.40 -3.5 0 1 87.98 221.31
  Q 103.02 239.92 126.52 247.96
  Q 126.66 248.01 127.16 248.32
  Q 127.52 248.53 127.86 248.53"
/>
</g>
<path fill="#e2e2e1" fill-opacity="0.996" d="
  M 101.85 50.22
  Q 101.87 50.39 101.93 50.53
  A 0.59 0.58 82.1 0 0 102.43 50.91
  Q 102.73 50.93 103.03 50.82
  L 103.79 50.70
  L 105.20 50.54
  L 112.04 49.63
  L 113.95 49.52
  L 119.53 49.16
  L 120.21 49.14
  Q 120.34 49.14 120.47 49.13
  Q 121.22 49.23 121.81 49.03
  Q 137.20 48.49 152.52 50.85
  Q 153.11 51.04 153.56 50.78
  L 153.79 49.79
  Q 154.22 49.04 154.25 48.24
  Q 157.31 38.22 161.94 31.72
  Q 165.49 26.73 167.39 25.86
  C 172.13 23.69 172.71 27.19 173.71 30.59
  A 0.33 0.33 0.0 0 0 174.26 30.73
  C 184.43 20.65 194.82 12.21 207.07 5.81
  C 212.82 2.81 227.30 -3.58 231.76 4.73
  Q 233.67 8.29 234.56 12.48
  Q 238.13 29.31 237.98 47.26
  C 237.89 57.78 236.13 68.92 231.24 77.74
  A 0.47 0.47 0.0 0 0 231.49 78.41
  C 234.36 79.44 239.92 81.89 240.93 85.16
  L 240.92 86.51
  C 239.60 89.62 233.71 91.66 230.71 92.54
  A 0.38 0.37 -28.9 0 0 230.53 93.15
  Q 237.48 101.12 241.42 110.77
  C 244.14 117.42 232.24 113.85 230.08 113.25
  L 229.69 113.20
  A 0.21 0.20 -80.5 0 0 229.47 113.36
  Q 229.44 113.48 229.40 113.63
  Q 234.19 121.98 237.83 130.89
  C 238.84 133.35 240.66 138.49 238.05 139.82
  Q 237.13 140.06 235.97 139.90
  L 225.31 133.40
  A 0.35 0.35 0.0 0 0 224.81 133.84
  Q 233.65 153.38 234.21 174.17
  C 234.30 177.43 234.37 185.93 231.04 187.37
  L 229.97 187.36
  C 227.74 186.65 224.18 181.43 223.27 180.32
  A 0.25 0.25 0.0 0 0 222.82 180.49
  C 224.02 198.66 217.83 216.81 203.87 228.51
  C 201.34 230.63 196.61 233.99 195.57 228.38
  Q 195.16 226.20 193.06 220.91
  A 0.55 0.55 0.0 0 0 192.02 220.95
  Q 186.76 237.99 170.17 246.48
  A 2.68 2.66 -63.7 0 1 169.50 246.71
  Q 166.12 247.31 165.43 244.58
  A 1.01 0.80 48.0 0 1 165.41 244.25
  L 167.08 232.81
  A 0.38 0.37 72.2 0 0 166.45 232.48
  Q 150.44 248.26 128.74 254.89
  Q 128.42 254.79 127.95 254.89
  Q 126.83 254.87 125.75 254.53
  Q 106.61 248.42 91.71 235.10
  Q 91.41 234.16 90.70 234.02
  L 89.08 232.49
  A 0.31 0.31 0.0 0 0 88.56 232.74
  L 88.91 236.20
  L 89.00 237.45
  L 89.29 239.26
  Q 89.22 239.84 89.45 240.25
  Q 89.49 240.40 89.54 240.54
  L 89.65 241.23
  L 89.86 242.21
  L 89.97 243.05
  Q 89.89 243.58 90.13 244.06
  C 89.80 248.15 85.15 246.78 82.91 245.26
  Q 81.53 244.33 81.20 244.11
  Q 67.85 235.56 63.38 220.65
  A 0.40 0.40 0.0 0 0 62.64 220.60
  Q 60.54 225.25 59.64 229.63
  Q 59.44 230.63 57.98 231.34
  L 55.89 231.38
  Q 50.03 227.94 45.89 222.84
  Q 30.97 204.45 32.71 180.46
  A 0.25 0.25 0.0 0 0 32.26 180.28
  C 30.89 181.98 27.81 186.50 25.68 187.30
  L 24.50 187.35
  C 20.98 185.96 21.14 175.74 21.32 172.30
  Q 22.36 152.46 30.68 133.79
  A 0.35 0.35 0.0 0 0 30.18 133.35
  L 19.15 140.03
  L 17.67 139.88
  C 14.64 138.55 16.94 132.45 17.92 130.14
  Q 21.57 121.49 26.10 113.71
  A 0.38 0.37 -82.7 0 0 25.68 113.16
  Q 22.03 114.18 17.78 114.69
  C 14.82 115.04 12.89 113.77 14.15 110.69
  Q 18.03 101.17 24.89 93.28
  A 0.50 0.50 0.0 0 0 24.68 92.48
  Q 19.78 90.82 17.11 89.20
  Q 13.77 87.18 14.94 84.23
  A 2.70 2.59 -12.4 0 1 15.52 83.36
  Q 18.65 80.32 24.09 78.44
  A 0.45 0.45 0.0 0 0 24.34 77.80
  C 19.52 68.91 17.73 58.22 17.59 47.74
  Q 17.33 28.70 21.41 10.72
  C 21.97 8.22 23.73 3.65 26.14 2.10
  C 32.58 -2.03 44.65 3.54 50.80 7.00
  Q 67.51 16.37 81.19 30.69
  A 0.39 0.38 -58.0 0 0 81.83 30.54
  C 82.96 27.23 83.41 23.61 88.13 25.84
  Q 90.05 26.75 93.35 31.60
  Q 99.18 40.17 101.85 50.22
  Z
  M 34.69 175.19
  Q 34.83 175.27 34.91 175.32
  A 0.23 0.22 -73.5 0 1 35.03 175.55
  C 32.96 193.24 37.17 210.60 49.30 223.62
  Q 52.61 227.18 56.23 229.30
  A 1.19 1.19 0.0 0 0 58.01 228.46
  Q 59.02 222.21 63.34 216.55
  A 0.62 0.61 -32.4 0 1 64.43 216.79
  Q 68.18 233.61 82.66 242.86
  Q 84.40 243.97 86.98 244.88
  A 0.96 0.96 0.0 0 0 88.23 243.74
  Q 86.31 236.11 86.93 227.75
  Q 102.32 243.98 122.37 251.21
  C 125.73 252.42 127.43 253.19 130.44 252.18
  C 144.32 247.51 158.06 239.29 167.83 228.00
  L 168.73 228.04
  Q 169.17 235.54 168.46 238.48
  Q 167.76 241.41 167.57 244.17
  A 0.81 0.81 0.0 0 0 168.73 244.96
  C 180.62 239.32 187.94 229.38 191.32 216.61
  A 0.53 0.53 0.0 0 1 192.26 216.42
  Q 196.50 222.04 197.77 228.69
  A 0.95 0.94 -20.7 0 0 199.18 229.32
  C 208.82 223.67 215.67 212.19 218.61 201.68
  Q 222.23 188.77 220.36 175.88
  A 0.64 0.64 0.0 0 1 221.48 175.37
  L 229.85 185.03
  A 0.75 0.75 0.0 0 0 231.14 184.72
  Q 232.72 178.43 232.22 171.74
  Q 230.57 149.75 220.85 129.65
  A 0.40 0.39 -88.1 0 1 221.40 129.13
  L 236.70 137.97
  A 0.52 0.52 0.0 0 0 237.47 137.46
  Q 237.06 133.76 235.55 130.41
  Q 231.33 121.01 226.07 111.39
  A 0.45 0.45 0.0 0 1 226.54 110.73
  L 238.65 112.77
  A 0.93 0.93 0.0 0 0 239.67 111.49
  Q 235.02 100.56 227.30 92.34
  A 0.47 0.47 0.0 0 1 227.52 91.56
  C 231.26 90.52 236.72 88.78 238.89 86.27
  A 1.16 1.16 0.0 0 0 238.73 84.59
  Q 233.98 80.92 228.81 79.56
  A 0.61 0.61 0.0 0 1 228.45 78.64
  C 233.35 71.13 235.26 61.31 235.58 52.43
  Q 236.08 49.06 236.05 45.51
  Q 235.89 28.36 232.33 12.01
  C 231.50 8.21 229.82 2.82 225.01 2.77
  C 217.81 2.68 209.84 6.40 203.89 9.88
  Q 186.54 20.01 173.01 35.03
  Q 172.60 35.47 172.22 35.39
  L 171.11 28.57
  A 1.61 1.61 0.0 0 0 168.63 27.49
  C 161.86 32.02 157.02 44.65 155.15 52.30
  A 1.15 1.15 0.0 0 1 153.86 53.16
  Q 127.82 48.94 101.23 53.04
  A 0.67 0.66 78.9 0 1 100.48 52.53
  Q 97.66 40.14 90.04 30.25
  Q 88.54 28.31 86.62 27.50
  A 1.51 1.51 0.0 0 0 84.62 28.34
  Q 83.49 31.21 83.61 34.98
  A 0.44 0.44 0.0 0 1 82.84 35.29
  Q 70.27 21.30 54.30 11.45
  C 47.31 7.13 37.77 2.13 29.48 2.84
  C 26.36 3.11 24.33 7.53 23.69 10.20
  Q 18.54 31.63 19.96 53.78
  Q 20.85 67.52 27.17 78.94
  A 0.43 0.43 0.0 0 1 26.92 79.57
  C 24.57 80.29 16.22 83.38 16.64 86.03
  Q 16.77 86.81 18.28 87.62
  Q 22.35 89.81 27.59 91.43
  A 0.78 0.78 0.0 0 1 27.94 92.69
  Q 20.14 101.30 15.77 111.99
  A 0.61 0.61 0.0 0 0 16.44 112.82
  L 29.35 110.63
  A 0.32 0.32 0.0 0 1 29.68 111.10
  Q 24.80 120.14 20.94 128.20
  Q 18.94 132.36 18.06 137.23
  A 0.59 0.59 0.0 0 0 18.93 137.84
  L 33.89 129.21
  A 0.55 0.55 0.0 0 1 34.66 129.93
  C 26.94 145.77 22.08 164.45 23.65 181.92
  Q 23.83 183.86 24.44 184.81
  A 1.08 1.08 0.0 0 0 26.16 184.94
  L 34.69 175.19
  Z"
/>
<path fill="#060605" d="
  M 172.22 35.39
  L 171.90 35.34
  A 0.51 0.49 82.5 0 1 171.51 35.03
  L 169.32 29.41
  A 0.37 0.37 0.0 0 0 168.75 29.25
  Q 165.94 31.34 164.38 33.87
  Q 159.11 42.42 157.02 50.96
  A 2.13 2.10 -18.0 0 1 156.60 51.77
  L 154.94 53.75
  A 1.62 1.61 -68.8 0 1 153.64 54.33
  Q 148.69 54.18 146.17 53.39
  A 5.13 4.84 51.9 0 0 144.71 53.17
  L 134.17 53.17
  A 0.32 0.32 0.0 0 0 134.07 53.80
  L 141.80 56.39
  A 2.84 2.83 -77.4 0 1 143.71 59.41
  Q 143.34 62.47 142.20 66.51
  Q 141.81 67.88 141.20 76.88
  A 4.96 4.67 -35.7 0 1 140.97 78.06
  L 140.32 79.99
  A 5.59 5.56 51.0 0 0 140.07 82.43
  Q 140.99 89.85 138.23 95.86
  Q 138.63 76.60 142.40 58.16
  A 0.51 0.51 0.0 0 0 141.94 57.55
  Q 127.87 56.68 113.60 57.56
  A 0.47 0.47 0.0 0 0 113.17 58.12
  Q 117.10 78.73 117.54 97.49
  Q 117.87 111.55 114.66 123.30
  Q 112.27 132.06 106.10 139.15
  Q 112.25 128.81 114.42 118.28
  Q 115.16 114.67 115.44 113.12
  Q 115.91 110.53 115.91 107.93
  Q 115.93 102.45 115.92 87.01
  A 8.64 8.23 40.4 0 0 115.74 85.28
  Q 114.92 81.51 114.97 78.29
  C 115.03 75.33 113.83 72.69 113.87 69.67
  A 4.21 4.08 38.1 0 0 113.70 68.43
  C 113.05 66.29 113.02 62.99 111.89 60.36
  Q 111.02 58.31 113.20 56.60
  A 2.39 2.38 24.1 0 1 114.49 56.11
  C 115.81 56.00 118.70 55.74 119.77 54.67
  A 0.66 0.66 0.0 0 0 119.33 53.54
  L 110.62 53.16
  A 6.84 6.67 35.7 0 0 108.03 53.55
  Q 105.14 54.59 102.00 54.42
  A 2.31 2.21 -27.8 0 1 101.05 54.15
  C 98.16 52.60 98.05 49.78 97.09 46.49
  C 95.55 41.21 91.99 33.35 87.33 29.25
  A 1.23 1.23 0.0 0 0 85.31 29.93
  C 85.10 30.95 85.26 34.53 84.36 35.66
  A 1.58 1.57 43.0 0 1 81.96 35.74
  Q 68.14 20.50 50.41 10.55
  Q 47.29 8.80 43.16 7.06
  C 39.59 5.55 29.03 1.55 26.56 6.11
  C 23.46 11.84 23.29 19.37 22.16 24.88
  A 4.83 4.49 51.7 0 0 22.07 25.98
  Q 22.23 29.69 21.33 32.89
  A 7.15 6.77 53.9 0 0 21.08 34.82
  Q 21.18 42.05 21.03 47.76
  Q 20.91 52.20 21.90 58.47
  C 22.98 65.33 24.67 71.43 27.91 77.68
  A 2.25 2.25 0.0 0 1 26.91 80.72
  C 24.90 81.72 20.92 82.72 18.53 85.08
  A 0.59 0.58 -45.3 0 0 18.53 85.91
  C 21.00 88.38 25.29 89.38 27.67 90.32
  A 2.20 2.20 0.0 0 1 28.49 93.86
  C 24.13 98.63 20.15 103.93 18.16 109.95
  A 0.53 0.53 0.0 0 0 18.58 110.64
  Q 20.99 111.04 21.61 110.86
  Q 25.26 109.79 28.70 109.41
  A 1.89 1.89 0.0 0 1 30.56 112.21
  Q 24.31 123.34 21.57 129.36
  Q 20.03 132.76 20.06 135.00
  A 0.50 0.50 0.0 0 0 20.81 135.42
  L 33.40 128.15
  A 1.73 1.73 0.0 0 1 35.80 130.43
  Q 26.95 147.77 25.22 166.77
  Q 24.61 173.52 25.27 181.77
  A 0.68 0.68 0.0 0 0 26.44 182.19
  Q 29.88 178.66 33.85 174.70
  A 0.69 0.63 -42.4 0 1 34.83 174.70
  Q 35.01 174.92 34.69 175.19
  L 26.16 184.94
  A 1.08 1.08 0.0 0 1 24.44 184.81
  Q 23.83 183.86 23.65 181.92
  C 22.08 164.45 26.94 145.77 34.66 129.93
  A 0.55 0.55 0.0 0 0 33.89 129.21
  L 18.93 137.84
  A 0.59 0.59 0.0 0 1 18.06 137.23
  Q 18.94 132.36 20.94 128.20
  Q 24.80 120.14 29.68 111.10
  A 0.32 0.32 0.0 0 0 29.35 110.63
  L 16.44 112.82
  A 0.61 0.61 0.0 0 1 15.77 111.99
  Q 20.14 101.30 27.94 92.69
  A 0.78 0.78 0.0 0 0 27.59 91.43
  Q 22.35 89.81 18.28 87.62
  Q 16.77 86.81 16.64 86.03
  C 16.22 83.38 24.57 80.29 26.92 79.57
  A 0.43 0.43 0.0 0 0 27.17 78.94
  Q 20.85 67.52 19.96 53.78
  Q 18.54 31.63 23.69 10.20
  C 24.33 7.53 26.36 3.11 29.48 2.84
  C 37.77 2.13 47.31 7.13 54.30 11.45
  Q 70.27 21.30 82.84 35.29
  A 0.44 0.44 0.0 0 0 83.61 34.98
  Q 83.49 31.21 84.62 28.34
  A 1.51 1.51 0.0 0 1 86.62 27.50
  Q 88.54 28.31 90.04 30.25
  Q 97.66 40.14 100.48 52.53
  A 0.67 0.66 78.9 0 0 101.23 53.04
  Q 127.82 48.94 153.86 53.16
  A 1.15 1.15 0.0 0 0 155.15 52.30
  C 157.02 44.65 161.86 32.02 168.63 27.49
  A 1.61 1.61 0.0 0 1 171.11 28.57
  L 172.22 35.39
  Z"
/>
<path fill="#252520" d="
  M 235.58 52.43
  Q 235.24 48.73 234.31 52.82
  Q 233.85 54.84 233.73 57.01
  C 233.50 61.37 232.23 65.03 231.38 69.27
  Q 230.51 73.58 227.60 77.66
  A 2.07 2.07 0.0 0 0 228.63 80.82
  C 232.30 82.04 234.67 82.81 236.99 84.99
  A 1.12 1.12 0.0 0 1 236.63 86.85
  L 227.10 90.57
  A 1.71 1.71 0.0 0 0 226.53 93.39
  Q 233.23 99.88 237.46 110.01
  A 0.47 0.47 0.0 0 1 237.13 110.65
  C 234.19 111.32 230.06 110.07 227.31 109.51
  A 2.11 2.11 0.0 0 0 225.10 112.68
  Q 229.87 120.38 234.06 130.45
  Q 234.80 132.23 235.33 134.64
  A 0.38 0.38 0.0 0 1 234.84 135.09
  Q 232.96 134.47 230.75 132.79
  A 0.14 0.11 -7.0 0 0 230.70 132.76
  L 222.05 128.02
  A 1.09 1.07 44.5 0 0 221.02 128.02
  Q 218.68 129.30 220.05 131.42
  C 223.45 136.72 224.01 140.10 226.84 148.77
  C 228.36 153.44 229.41 159.90 229.78 163.65
  Q 229.95 165.42 230.63 167.23
  A 2.95 2.71 -61.0 0 1 230.80 167.94
  Q 231.73 175.55 230.03 182.13
  A 0.41 0.41 0.0 0 1 229.32 182.30
  Q 226.89 179.55 222.43 174.96
  A 1.99 1.92 -47.6 0 0 219.52 175.14
  Q 218.84 175.96 219.22 177.52
  C 221.06 185.17 219.08 195.25 216.89 203.09
  Q 214.60 211.30 207.88 220.18
  C 205.39 223.48 203.07 226.16 199.71 227.57
  A 0.91 0.90 -13.0 0 1 198.45 226.79
  C 198.27 223.35 195.88 220.07 193.38 216.06
  A 1.22 1.18 81.7 0 0 192.72 215.55
  Q 190.52 214.86 190.06 216.60
  Q 187.55 226.08 182.08 233.11
  Q 177.64 238.82 172.71 241.68
  Q 170.99 242.69 169.83 242.84
  A 0.71 0.71 0.0 0 1 169.04 241.97
  Q 170.63 235.18 169.77 228.21
  A 0.40 0.40 0.0 0 0 169.50 227.88
  Q 169.11 227.74 168.73 228.04
  L 167.83 228.00
  Q 167.79 227.65 167.66 227.59
  Q 167.12 227.33 166.66 227.77
  C 163.41 230.90 160.61 234.26 156.77 237.04
  Q 146.55 244.45 134.93 249.11
  Q 131.93 250.31 128.64 250.83
  Q 127.63 250.99 127.28 250.64
  A 0.11 0.11 0.0 0 1 127.38 250.45
  Q 127.40 250.45 127.57 250.54
  A 0.77 0.76 40.9 0 0 128.37 250.49
  Q 129.54 249.69 130.36 249.38
  Q 130.75 249.23 131.13 249.34
  Q 131.72 249.50 131.89 249.18
  C 132.20 248.56 134.75 247.57 136.69 246.56
  Q 137.35 246.23 137.72 246.28
  Q 138.32 246.37 138.67 245.93
  Q 139.01 245.50 139.85 245.05
  Q 146.21 241.68 150.84 238.74
  A 3.92 3.49 3.3 0 0 151.51 238.21
  Q 153.03 236.69 154.49 236.06
  A 1.87 1.85 -82.3 0 0 155.24 235.48
  Q 156.08 234.39 160.37 231.16
  Q 163.75 228.61 167.09 223.74
  A 1.46 0.68 -34.0 0 1 167.20 223.60
  L 168.70 222.06
  A 1.12 1.12 0.0 0 1 170.59 222.55
  L 172.01 227.85
  A 1.92 1.69 41.3 0 1 172.07 228.31
  L 172.04 235.74
  A 1.82 1.81 -3.2 0 0 174.07 237.55
  Q 174.53 237.51 175.62 236.60
  Q 177.44 235.06 178.57 233.98
  A 4.85 4.61 -7.5 0 0 179.28 233.10
  Q 180.66 230.83 182.34 229.18
  A 3.33 3.31 -8.0 0 0 182.94 228.39
  Q 186.07 222.76 187.63 216.08
  A 3.96 3.80 53.3 0 0 187.75 215.12
  Q 187.77 210.88 188.71 207.63
  A 0.66 0.66 0.0 0 1 189.78 207.33
  Q 196.79 213.65 199.57 222.98
  A 0.34 0.34 0.0 0 0 200.11 223.15
  Q 201.26 222.23 201.89 222.33
  A 0.67 0.67 0.0 0 0 202.59 221.99
  Q 204.93 217.76 205.14 215.98
  Q 205.72 210.87 203.85 203.82
  C 201.75 195.85 198.13 187.87 192.33 181.76
  C 187.77 176.96 183.46 173.03 177.24 172.31
  Q 173.76 171.91 171.61 175.04
  A 2.46 2.45 67.1 0 0 171.21 176.03
  C 170.09 183.23 165.75 188.28 159.36 191.67
  A 4.89 4.86 87.7 0 0 157.14 194.09
  C 156.14 196.46 155.68 197.83 154.57 199.74
  Q 148.82 209.59 137.99 212.90
  Q 134.51 213.97 129.44 214.04
  Q 122.66 214.14 120.78 213.73
  Q 106.55 210.68 100.24 197.75
  A 2.76 2.52 -66.3 0 1 100.01 197.07
  Q 99.64 195.28 98.47 193.14
  A 0.72 0.69 -88.9 0 0 98.22 192.87
  L 90.59 187.73
  A 1.77 1.68 87.8 0 1 90.16 187.31
  L 86.66 182.57
  A 0.94 0.89 -77.1 0 1 86.53 182.35
  L 83.36 174.63
  A 1.59 1.59 0.0 0 0 82.91 174.02
  C 75.52 168.13 64.13 180.17 60.29 185.80
  Q 53.50 195.73 50.77 207.17
  A 4.36 4.30 50.9 0 0 50.65 208.41
  Q 50.81 211.84 50.51 212.84
  A 2.36 2.31 -41.3 0 0 50.44 213.77
  Q 51.12 219.26 52.94 222.81
  A 1.82 1.82 0.0 0 0 56.31 222.45
  Q 57.89 216.65 62.01 211.49
  Q 63.54 209.57 65.74 208.27
  Q 65.94 208.53 66.26 208.52
  C 67.50 212.32 68.08 216.99 69.13 220.03
  Q 72.72 230.38 81.12 237.79
  A 0.88 0.87 -33.3 0 0 81.96 237.96
  Q 84.17 237.26 84.20 234.03
  Q 84.24 230.37 84.09 225.48
  A 1.38 1.36 -32.1 0 1 84.25 224.80
  L 85.54 222.21
  A 0.95 0.94 37.9 0 1 87.10 222.02
  L 94.94 231.08
  A 0.11 0.11 0.0 0 1 94.88 231.27
  Q 94.72 231.30 94.63 231.18
  Q 94.14 230.51 93.64 230.58
  A 0.36 0.36 0.0 0 0 93.43 231.19
  L 94.86 232.60
  A 0.09 0.07 39.3 0 1 94.88 232.70
  L 94.72 232.97
  A 0.23 0.23 0.0 0 1 94.38 233.04
  C 92.78 231.82 90.62 230.24 89.56 228.55
  Q 89.03 227.69 86.93 227.75
  Q 86.31 236.11 88.23 243.74
  A 0.96 0.96 0.0 0 1 86.98 244.88
  Q 84.40 243.97 82.66 242.86
  Q 68.18 233.61 64.43 216.79
  A 0.62 0.61 -32.4 0 0 63.34 216.55
  Q 59.02 222.21 58.01 228.46
  A 1.19 1.19 0.0 0 1 56.23 229.30
  Q 52.61 227.18 49.30 223.62
  C 37.17 210.60 32.96 193.24 35.03 175.55
  A 0.23 0.22 -73.5 0 0 34.91 175.32
  Q 34.83 175.27 34.69 175.19
  Q 35.01 174.92 34.83 174.70
  A 0.69 0.63 -42.4 0 0 33.85 174.70
  Q 29.88 178.66 26.44 182.19
  A 0.68 0.68 0.0 0 1 25.27 181.77
  Q 24.61 173.52 25.22 166.77
  Q 26.95 147.77 35.80 130.43
  A 1.73 1.73 0.0 0 0 33.40 128.15
  L 20.81 135.42
  A 0.50 0.50 0.0 0 1 20.06 135.00
  Q 20.03 132.76 21.57 129.36
  Q 24.31 123.34 30.56 112.21
  A 1.89 1.89 0.0 0 0 28.70 109.41
  Q 25.26 109.79 21.61 110.86
  Q 20.99 111.04 18.58 110.64
  A 0.53 0.53 0.0 0 1 18.16 109.95
  C 20.15 103.93 24.13 98.63 28.49 93.86
  A 2.20 2.20 0.0 0 0 27.67 90.32
  C 25.29 89.38 21.00 88.38 18.53 85.91
  A 0.59 0.58 -45.3 0 1 18.53 85.08
  C 20.92 82.72 24.90 81.72 26.91 80.72
  A 2.25 2.25 0.0 0 0 27.91 77.68
  C 24.67 71.43 22.98 65.33 21.90 58.47
  Q 20.91 52.20 21.03 47.76
  Q 21.18 42.05 21.08 34.82
  A 7.15 6.77 53.9 0 1 21.33 32.89
  Q 22.23 29.69 22.07 25.98
  A 4.83 4.49 51.7 0 1 22.16 24.88
  C 23.29 19.37 23.46 11.84 26.56 6.11
  C 29.03 1.55 39.59 5.55 43.16 7.06
  Q 47.29 8.80 50.41 10.55
  Q 68.14 20.50 81.96 35.74
  A 1.58 1.57 43.0 0 0 84.36 35.66
  C 85.26 34.53 85.10 30.95 85.31 29.93
  A 1.23 1.23 0.0 0 1 87.33 29.25
  C 91.99 33.35 95.55 41.21 97.09 46.49
  C 98.05 49.78 98.16 52.60 101.05 54.15
  A 2.31 2.21 -27.8 0 0 102.00 54.42
  Q 105.14 54.59 108.03 53.55
  A 6.84 6.67 35.7 0 1 110.62 53.16
  L 119.33 53.54
  A 0.66 0.66 0.0 0 1 119.77 54.67
  C 118.70 55.74 115.81 56.00 114.49 56.11
  A 2.39 2.38 24.1 0 0 113.20 56.60
  Q 111.02 58.31 111.89 60.36
  C 113.02 62.99 113.05 66.29 113.70 68.43
  A 4.21 4.08 38.1 0 1 113.87 69.67
  C 113.83 72.69 115.03 75.33 114.97 78.29
  Q 114.92 81.51 115.74 85.28
  A 8.64 8.23 40.4 0 1 115.92 87.01
  Q 115.93 102.45 115.91 107.93
  Q 115.91 110.53 115.44 113.12
  Q 115.16 114.67 114.42 118.28
  Q 112.25 128.81 106.10 139.15
  Q 103.52 142.46 95.98 149.97
  Q 92.00 153.93 89.17 160.68
  C 85.77 168.80 86.09 177.70 92.35 184.05
  C 100.48 192.30 114.00 191.68 122.09 183.81
  Q 124.42 181.54 125.55 177.46
  A 1.42 1.42 0.0 0 0 124.41 175.69
  Q 115.89 174.31 112.03 166.75
  C 109.83 162.43 108.45 155.73 111.29 151.73
  C 114.66 146.99 120.62 145.66 126.74 145.49
  C 134.55 145.27 145.14 147.31 145.87 156.21
  C 146.61 165.20 140.85 174.22 131.38 175.63
  A 1.55 1.54 -12.5 0 0 130.12 177.60
  Q 131.91 183.55 137.32 186.75
  C 151.49 195.13 170.44 186.13 168.51 168.32
  C 167.47 158.66 161.66 151.45 154.53 144.79
  C 148.07 138.75 143.37 131.55 141.00 123.25
  Q 137.21 110.03 138.23 95.86
  Q 140.99 89.85 140.07 82.43
  A 5.59 5.56 51.0 0 1 140.32 79.99
  L 140.97 78.06
  A 4.96 4.67 -35.7 0 0 141.20 76.88
  Q 141.81 67.88 142.20 66.51
  Q 143.34 62.47 143.71 59.41
  A 2.84 2.83 -77.4 0 0 141.80 56.39
  L 134.07 53.80
  A 0.32 0.32 0.0 0 1 134.17 53.17
  L 144.71 53.17
  A 5.13 4.84 51.9 0 1 146.17 53.39
  Q 148.69 54.18 153.64 54.33
  A 1.62 1.61 -68.8 0 0 154.94 53.75
  L 156.60 51.77
  A 2.13 2.10 -18.0 0 0 157.02 50.96
  Q 159.11 42.42 164.38 33.87
  Q 165.94 31.34 168.75 29.25
  A 0.37 0.37 0.0 0 1 169.32 29.41
  L 171.51 35.03
  A 0.51 0.49 82.5 0 0 171.90 35.34
  L 172.22 35.39
  Q 172.60 35.47 173.01 35.03
  Q 186.54 20.01 203.89 9.88
  C 209.84 6.40 217.81 2.68 225.01 2.77
  C 229.82 2.82 231.50 8.21 232.33 12.01
  Q 235.89 28.36 236.05 45.51
  Q 236.08 49.06 235.58 52.43
  Z
  M 78.32 102.35
  A 1.21 1.21 0.0 0 0 80.00 103.58
  C 86.49 100.85 91.01 98.68 98.49 100.62
  A 1.69 1.69 0.0 0 0 100.58 99.22
  L 100.60 99.07
  A 2.36 2.35 13.5 0 0 99.03 96.52
  Q 88.85 93.04 80.11 99.60
  Q 78.46 100.84 78.32 102.35
  Z
  M 177.40 102.33
  Q 177.26 100.82 175.61 99.59
  Q 166.88 93.05 156.71 96.53
  A 2.35 2.34 -13.5 0 0 155.15 99.08
  L 155.17 99.23
  A 1.68 1.68 0.0 0 0 157.26 100.62
  C 164.72 98.68 169.24 100.84 175.72 103.56
  A 1.21 1.21 0.0 0 0 177.40 102.33
  Z
  M 97.08 118.64
  A 4.77 4.77 0.0 0 0 92.31 113.87
  A 4.77 4.77 0.0 0 0 87.54 118.64
  A 4.77 4.77 0.0 0 0 92.31 123.41
  A 4.77 4.77 0.0 0 0 97.08 118.64
  Z
  M 167.97 118.66
  A 4.75 4.75 0.0 0 0 163.22 113.91
  A 4.75 4.75 0.0 0 0 158.47 118.66
  A 4.75 4.75 0.0 0 0 163.22 123.41
  A 4.75 4.75 0.0 0 0 167.97 118.66
  Z
  M 127.81 155.14
  Q 133.14 155.14 140.13 156.61
  A 0.58 0.57 84.8 0 0 140.78 155.82
  C 139.03 151.59 132.22 150.60 127.81 150.60
  C 123.39 150.60 116.58 151.59 114.84 155.83
  A 0.58 0.57 -84.8 0 0 115.49 156.61
  Q 122.48 155.14 127.81 155.14
  Z
  M 127.84 210.55
  C 137.69 210.55 147.05 204.78 151.39 195.88
  A 0.42 0.42 0.0 0 0 150.98 195.28
  Q 136.67 196.69 128.19 185.54
  Q 128.07 185.38 127.84 185.38
  Q 127.61 185.38 127.49 185.54
  Q 119.00 196.69 104.70 195.28
  A 0.42 0.42 0.0 0 0 104.28 195.88
  C 108.62 204.78 117.99 210.55 127.84 210.55
  Z"
/>
<path fill="#666664" d="
  M 154.25 48.24
  Q 154.22 49.04 153.79 49.79
  Q 153.78 48.78 154.25 48.24
  Z"
/>
<path fill="#060605" d="
  M 120.21 49.14
  L 119.53 49.16
  L 120.21 49.14
  Z"
/>
<path fill="#060605" d="
  M 121.81 49.03
  Q 121.22 49.23 120.47 49.13
  L 121.81 49.03
  Z"
/>
<path fill="#060605" d="
  M 113.95 49.52
  L 112.04 49.63
  L 113.95 49.52
  Z"
/>
<path fill="#060605" d="
  M 103.03 50.82
  Q 102.73 50.93 102.43 50.91
  A 0.59 0.58 82.1 0 1 101.93 50.53
  Q 101.87 50.39 101.85 50.22
  L 101.96 50.55
  A 0.41 0.39 -8.3 0 0 102.33 50.81
  L 103.03 50.82
  Z"
/>
<path fill="#060605" d="
  M 105.20 50.54
  L 103.79 50.70
  L 105.20 50.54
  Z"
/>
<path fill="#060605" d="
  M 235.58 52.43
  C 235.26 61.31 233.35 71.13 228.45 78.64
  A 0.61 0.61 0.0 0 0 228.81 79.56
  Q 233.98 80.92 238.73 84.59
  A 1.16 1.16 0.0 0 1 238.89 86.27
  C 236.72 88.78 231.26 90.52 227.52 91.56
  A 0.47 0.47 0.0 0 0 227.30 92.34
  Q 235.02 100.56 239.67 111.49
  A 0.93 0.93 0.0 0 1 238.65 112.77
  L 226.54 110.73
  A 0.45 0.45 0.0 0 0 226.07 111.39
  Q 231.33 121.01 235.55 130.41
  Q 237.06 133.76 237.47 137.46
  A 0.52 0.52 0.0 0 1 236.70 137.97
  L 221.40 129.13
  A 0.40 0.39 -88.1 0 0 220.85 129.65
  Q 230.57 149.75 232.22 171.74
  Q 232.72 178.43 231.14 184.72
  A 0.75 0.75 0.0 0 1 229.85 185.03
  L 221.48 175.37
  A 0.64 0.64 0.0 0 0 220.36 175.88
  Q 222.23 188.77 218.61 201.68
  C 215.67 212.19 208.82 223.67 199.18 229.32
  A 0.95 0.94 -20.7 0 1 197.77 228.69
  Q 196.50 222.04 192.26 216.42
  A 0.53 0.53 0.0 0 0 191.32 216.61
  C 187.94 229.38 180.62 239.32 168.73 244.96
  A 0.81 0.81 0.0 0 1 167.57 244.17
  Q 167.76 241.41 168.46 238.48
  Q 169.17 235.54 168.73 228.04
  Q 169.11 227.74 169.50 227.88
  A 0.40 0.40 0.0 0 1 169.77 228.21
  Q 170.63 235.18 169.04 241.97
  A 0.71 0.71 0.0 0 0 169.83 242.84
  Q 170.99 242.69 172.71 241.68
  Q 177.64 238.82 182.08 233.11
  Q 187.55 226.08 190.06 216.60
  Q 190.52 214.86 192.72 215.55
  A 1.22 1.18 81.7 0 1 193.38 216.06
  C 195.88 220.07 198.27 223.35 198.45 226.79
  A 0.91 0.90 -13.0 0 0 199.71 227.57
  C 203.07 226.16 205.39 223.48 207.88 220.18
  Q 214.60 211.30 216.89 203.09
  C 219.08 195.25 221.06 185.17 219.22 177.52
  Q 218.84 175.96 219.52 175.14
  A 1.99 1.92 -47.6 0 1 222.43 174.96
  Q 226.89 179.55 229.32 182.30
  A 0.41 0.41 0.0 0 0 230.03 182.13
  Q 231.73 175.55 230.80 167.94
  A 2.95 2.71 -61.0 0 0 230.63 167.23
  Q 229.95 165.42 229.78 163.65
  C 229.41 159.90 228.36 153.44 226.84 148.77
  C 224.01 140.10 223.45 136.72 220.05 131.42
  Q 218.68 129.30 221.02 128.02
  A 1.09 1.07 44.5 0 1 222.05 128.02
  L 230.70 132.76
  A 0.14 0.11 -7.0 0 1 230.75 132.79
  Q 232.96 134.47 234.84 135.09
  A 0.38 0.38 0.0 0 0 235.33 134.64
  Q 234.80 132.23 234.06 130.45
  Q 229.87 120.38 225.10 112.68
  A 2.11 2.11 0.0 0 1 227.31 109.51
  C 230.06 110.07 234.19 111.32 237.13 110.65
  A 0.47 0.47 0.0 0 0 237.46 110.01
  Q 233.23 99.88 226.53 93.39
  A 1.71 1.71 0.0 0 1 227.10 90.57
  L 236.63 86.85
  A 1.12 1.12 0.0 0 0 236.99 84.99
  C 234.67 82.81 232.30 82.04 228.63 80.82
  A 2.07 2.07 0.0 0 1 227.60 77.66
  Q 230.51 73.58 231.38 69.27
  C 232.23 65.03 233.50 61.37 233.73 57.01
  Q 233.85 54.84 234.31 52.82
  Q 235.24 48.73 235.58 52.43
  Z"
/>
<path fill="#060605" d="
  M 153.56 50.78
  Q 153.11 51.04 152.52 50.85
  L 153.56 50.78
  Z"
/>
<path fill="#fdfdfd" d="
  M 138.23 95.86
  Q 137.21 110.03 141.00 123.25
  C 143.37 131.55 148.07 138.75 154.53 144.79
  C 161.66 151.45 167.47 158.66 168.51 168.32
  C 170.44 186.13 151.49 195.13 137.32 186.75
  Q 131.91 183.55 130.12 177.60
  A 1.55 1.54 -12.5 0 1 131.38 175.63
  C 140.85 174.22 146.61 165.20 145.87 156.21
  C 145.14 147.31 134.55 145.27 126.74 145.49
  C 120.62 145.66 114.66 146.99 111.29 151.73
  C 108.45 155.73 109.83 162.43 112.03 166.75
  Q 115.89 174.31 124.41 175.69
  A 1.42 1.42 0.0 0 1 125.55 177.46
  Q 124.42 181.54 122.09 183.81
  C 114.00 191.68 100.48 192.30 92.35 184.05
  C 86.09 177.70 85.77 168.80 89.17 160.68
  Q 92.00 153.93 95.98 149.97
  Q 103.52 142.46 106.10 139.15
  Q 112.27 132.06 114.66 123.30
  Q 117.87 111.55 117.54 97.49
  Q 117.10 78.73 113.17 58.12
  A 0.47 0.47 0.0 0 1 113.60 57.56
  Q 127.87 56.68 141.94 57.55
  A 0.51 0.51 0.0 0 1 142.40 58.16
  Q 138.63 76.60 138.23 95.86
  Z"
/>
<path fill="#060605" d="
  M 240.92 86.51
  L 240.93 85.16
  L 240.92 86.51
  Z"
/>
<path fill="#fdfdfd" d="
  M 78.32 102.35
  Q 78.46 100.84 80.11 99.60
  Q 88.85 93.04 99.03 96.52
  A 2.36 2.35 13.5 0 1 100.60 99.07
  L 100.58 99.22
  A 1.69 1.69 0.0 0 1 98.49 100.62
  C 91.01 98.68 86.49 100.85 80.00 103.58
  A 1.21 1.21 0.0 0 1 78.32 102.35
  Z"
/>
<path fill="#fdfdfd" d="
  M 177.40 102.33
  A 1.21 1.21 0.0 0 1 175.72 103.56
  C 169.24 100.84 164.72 98.68 157.26 100.62
  A 1.68 1.68 0.0 0 1 155.17 99.23
  L 155.15 99.08
  A 2.35 2.34 -13.5 0 1 156.71 96.53
  Q 166.88 93.05 175.61 99.59
  Q 177.26 100.82 177.40 102.33
  Z"
/>
<path fill="#060605" d="
  M 230.08 113.25
  Q 229.69 113.03 229.40 113.63
  Q 229.44 113.48 229.47 113.36
  A 0.21 0.20 -80.5 0 1 229.69 113.20
  L 230.08 113.25
  Z"
/>
<circle fill="#fdfdfd" cx="92.31" cy="118.64" r="4.77"/>
<circle fill="#fdfdfd" cx="163.22" cy="118.66" r="4.75"/>
<path fill="#666664" d="
  M 238.05 139.82
  Q 237.85 139.83 237.72 139.96
  L 236.79 140.08
  Q 236.33 139.84 235.97 139.90
  Q 237.13 140.06 238.05 139.82
  Z"
/>
<path fill="#252520" d="
  M 19.15 140.03
  Q 18.11 140.33 17.67 139.88
  L 19.15 140.03
  Z"
/>
<path fill="#060605" d="
  M 237.72 139.96
  Q 237.65 140.31 236.79 140.08
  L 237.72 139.96
  Z"
/>
<path fill="#666664" d="
  M 127.81 150.60
  C 132.22 150.60 139.03 151.59 140.78 155.82
  A 0.58 0.57 84.8 0 1 140.13 156.61
  Q 133.14 155.14 127.81 155.14
  Q 122.48 155.14 115.49 156.61
  A 0.58 0.57 -84.8 0 1 114.84 155.83
  C 116.58 151.59 123.39 150.60 127.81 150.60
  Z"
/>
<path fill="#060605" d="
  M 167.83 228.00
  C 158.06 239.29 144.32 247.51 130.44 252.18
  C 127.43 253.19 125.73 252.42 122.37 251.21
  Q 102.32 243.98 86.93 227.75
  Q 89.03 227.69 89.56 228.55
  C 90.62 230.24 92.78 231.82 94.38 233.04
  A 0.23 0.23 0.0 0 0 94.72 232.97
  L 94.88 232.70
  A 0.09 0.07 39.3 0 0 94.86 232.60
  L 93.43 231.19
  A 0.36 0.36 0.0 0 1 93.64 230.58
  Q 94.14 230.51 94.63 231.18
  Q 94.72 231.30 94.88 231.27
  A 0.11 0.11 0.0 0 0 94.94 231.08
  L 87.10 222.02
  A 0.95 0.94 37.9 0 0 85.54 222.21
  L 84.25 224.80
  A 1.38 1.36 -32.1 0 0 84.09 225.48
  Q 84.24 230.37 84.20 234.03
  Q 84.17 237.26 81.96 237.96
  A 0.88 0.87 -33.3 0 1 81.12 237.79
  Q 72.72 230.38 69.13 220.03
  C 68.08 216.99 67.50 212.32 66.26 208.52
  Q 66.49 208.24 66.58 208.01
  A 0.26 0.26 0.0 0 0 66.14 207.76
  L 65.74 208.27
  Q 63.54 209.57 62.01 211.49
  Q 57.89 216.65 56.31 222.45
  A 1.82 1.82 0.0 0 1 52.94 222.81
  Q 51.12 219.26 50.44 213.77
  A 2.36 2.31 -41.3 0 1 50.51 212.84
  Q 50.81 211.84 50.65 208.41
  A 4.36 4.30 50.9 0 1 50.77 207.17
  Q 53.50 195.73 60.29 185.80
  C 64.13 180.17 75.52 168.13 82.91 174.02
  A 1.59 1.59 0.0 0 1 83.36 174.63
  L 86.53 182.35
  A 0.94 0.89 -77.1 0 0 86.66 182.57
  L 90.16 187.31
  A 1.77 1.68 87.8 0 0 90.59 187.73
  L 98.22 192.87
  A 0.72 0.69 -88.9 0 1 98.47 193.14
  Q 99.64 195.28 100.01 197.07
  A 2.76 2.52 -66.3 0 0 100.24 197.75
  Q 106.55 210.68 120.78 213.73
  Q 122.66 214.14 129.44 214.04
  Q 134.51 213.97 137.99 212.90
  Q 148.82 209.59 154.57 199.74
  C 155.68 197.83 156.14 196.46 157.14 194.09
  A 4.89 4.86 87.7 0 1 159.36 191.67
  C 165.75 188.28 170.09 183.23 171.21 176.03
  A 2.46 2.45 67.1 0 1 171.61 175.04
  Q 173.76 171.91 177.24 172.31
  C 183.46 173.03 187.77 176.96 192.33 181.76
  C 198.13 187.87 201.75 195.85 203.85 203.82
  Q 205.72 210.87 205.14 215.98
  Q 204.93 217.76 202.59 221.99
  A 0.67 0.67 0.0 0 1 201.89 222.33
  Q 201.26 222.23 200.11 223.15
  A 0.34 0.34 0.0 0 1 199.57 222.98
  Q 196.79 213.65 189.78 207.33
  A 0.66 0.66 0.0 0 0 188.71 207.63
  Q 187.77 210.88 187.75 215.12
  A 3.96 3.80 53.3 0 1 187.63 216.08
  Q 186.07 222.76 182.94 228.39
  A 3.33 3.31 -8.0 0 1 182.34 229.18
  Q 180.66 230.83 179.28 233.10
  A 4.85 4.61 -7.5 0 1 178.57 233.98
  Q 177.44 235.06 175.62 236.60
  Q 174.53 237.51 174.07 237.55
  A 1.82 1.81 -3.2 0 1 172.04 235.74
  L 172.07 228.31
  A 1.92 1.69 41.3 0 0 172.01 227.85
  L 170.59 222.55
  A 1.12 1.12 0.0 0 0 168.70 222.06
  L 167.20 223.60
  A 1.46 0.68 -34.0 0 0 167.09 223.74
  Q 163.75 228.61 160.37 231.16
  Q 156.08 234.39 155.24 235.48
  A 1.87 1.85 -82.3 0 1 154.49 236.06
  Q 153.03 236.69 151.51 238.21
  A 3.92 3.49 3.3 0 1 150.84 238.74
  Q 146.21 241.68 139.85 245.05
  Q 139.01 245.50 138.67 245.93
  Q 138.32 246.37 137.72 246.28
  Q 137.35 246.23 136.69 246.56
  C 134.75 247.57 132.20 248.56 131.89 249.18
  Q 131.72 249.50 131.13 249.34
  Q 130.75 249.23 130.36 249.38
  Q 129.54 249.69 128.37 250.49
  A 0.77 0.76 40.9 0 1 127.57 250.54
  Q 127.40 250.45 127.38 250.45
  A 0.11 0.11 0.0 0 0 127.28 250.64
  Q 127.63 250.99 128.64 250.83
  Q 131.93 250.31 134.93 249.11
  Q 146.55 244.45 156.77 237.04
  C 160.61 234.26 163.41 230.90 166.66 227.77
  Q 167.12 227.33 167.66 227.59
  Q 167.79 227.65 167.83 228.00
  Z
  M 127.86 248.53
  Q 128.20 248.53 128.56 248.32
  Q 129.06 248.01 129.20 247.96
  Q 152.70 239.92 167.74 221.31
  A 2.47 2.40 3.5 0 1 168.38 220.76
  Q 170.83 219.27 171.77 221.98
  Q 173.94 228.22 173.24 236.15
  A 0.42 0.42 0.0 0 0 173.92 236.52
  C 183.06 229.18 187.49 218.06 187.31 206.51
  A 1.19 1.18 -70.9 0 1 189.24 205.57
  Q 197.03 211.90 200.41 221.70
  A 0.68 0.68 0.0 0 0 201.65 221.81
  C 207.86 210.37 199.62 192.34 192.40 183.40
  C 188.61 178.70 180.40 171.32 173.99 174.27
  A 2.14 2.12 -6.7 0 0 172.81 175.75
  Q 170.29 187.52 159.52 192.69
  A 2.73 2.71 -3.4 0 0 158.14 194.23
  C 153.41 207.63 142.36 215.58 127.86 215.58
  C 113.36 215.58 102.31 207.63 97.58 194.23
  A 2.73 2.71 3.4 0 0 96.20 192.69
  Q 85.43 187.52 82.91 175.75
  A 2.14 2.12 6.7 0 0 81.73 174.27
  C 75.32 171.32 67.11 178.70 63.32 183.40
  C 56.10 192.34 47.86 210.37 54.07 221.81
  A 0.68 0.68 0.0 0 0 55.31 221.70
  Q 58.69 211.90 66.48 205.57
  A 1.19 1.18 70.9 0 1 68.41 206.51
  C 68.23 218.06 72.66 229.18 81.80 236.52
  A 0.42 0.42 0.0 0 0 82.48 236.15
  Q 81.78 228.22 83.95 221.98
  Q 84.89 219.27 87.34 220.76
  A 2.47 2.40 -3.5 0 1 87.98 221.31
  Q 103.02 239.92 126.52 247.96
  Q 126.66 248.01 127.16 248.32
  Q 127.52 248.53 127.86 248.53
  Z"
/>
<path fill="#fdfdfd" d="
  M 127.86 215.58
  C 142.36 215.58 153.41 207.63 158.14 194.23
  A 2.73 2.71 -3.4 0 1 159.52 192.69
  Q 170.29 187.52 172.81 175.75
  A 2.14 2.12 -6.7 0 1 173.99 174.27
  C 180.40 171.32 188.61 178.70 192.40 183.40
  C 199.62 192.34 207.86 210.37 201.65 221.81
  A 0.68 0.68 0.0 0 1 200.41 221.70
  Q 197.03 211.90 189.24 205.57
  A 1.19 1.18 -70.9 0 0 187.31 206.51
  C 187.49 218.06 183.06 229.18 173.92 236.52
  A 0.42 0.42 0.0 0 1 173.24 236.15
  Q 173.94 228.22 171.77 221.98
  Q 170.83 219.27 168.38 220.76
  A 2.47 2.40 3.5 0 0 167.74 221.31
  Q 152.70 239.92 129.20 247.96
  Q 129.06 248.01 128.56 248.32
  Q 128.20 248.53 127.86 248.53
  Q 127.52 248.53 127.16 248.32
  Q 126.66 248.01 126.52 247.96
  Q 103.02 239.92 87.98 221.31
  A 2.47 2.40 -3.5 0 0 87.34 220.76
  Q 84.89 219.27 83.95 221.98
  Q 81.78 228.22 82.48 236.15
  A 0.42 0.42 0.0 0 1 81.80 236.52
  C 72.66 229.18 68.23 218.06 68.41 206.51
  A 1.19 1.18 70.9 0 0 66.48 205.57
  Q 58.69 211.90 55.31 221.70
  A 0.68 0.68 0.0 0 1 54.07 221.81
  C 47.86 210.37 56.10 192.34 63.32 183.40
  C 67.11 178.70 75.32 171.32 81.73 174.27
  A 2.14 2.12 6.7 0 1 82.91 175.75
  Q 85.43 187.52 96.20 192.69
  A 2.73 2.71 3.4 0 1 97.58 194.23
  C 102.31 207.63 113.36 215.58 127.86 215.58
  Z"
/>
<path fill="#fdfdfd" d="
  M 127.84 210.55
  C 117.99 210.55 108.62 204.78 104.28 195.88
  A 0.42 0.42 0.0 0 1 104.70 195.28
  Q 119.00 196.69 127.49 185.54
  Q 127.61 185.38 127.84 185.38
  Q 128.07 185.38 128.19 185.54
  Q 136.67 196.69 150.98 195.28
  A 0.42 0.42 0.0 0 1 151.39 195.88
  C 147.05 204.78 137.69 210.55 127.84 210.55
  Z"
/>
<path fill="#060605" d="
  M 25.68 187.30
  Q 25.19 187.48 24.50 187.35
  L 25.68 187.30
  Z"
/>
<path fill="#060605" d="
  M 231.04 187.37
  L 229.97 187.36
  L 231.04 187.37
  Z"
/>
<path fill="#666664" d="
  M 66.26 208.52
  Q 65.94 208.53 65.74 208.27
  L 66.14 207.76
  A 0.26 0.26 0.0 0 1 66.58 208.01
  Q 66.49 208.24 66.26 208.52
  Z"
/>
<path fill="#060605" d="
  M 57.98 231.34
  L 55.89 231.38
  L 57.98 231.34
  Z"
/>
<path fill="#666664" d="
  M 91.71 235.10
  L 90.70 234.02
  Q 91.41 234.16 91.71 235.10
  Z"
/>
<path fill="#060605" d="
  M 89.00 237.45
  L 88.91 236.20
  Q 88.85 236.85 89.00 237.45
  Z"
/>
<path fill="#666664" d="
  M 89.45 240.25
  Q 89.22 239.84 89.29 239.26
  Q 89.53 239.70 89.45 240.25
  Z"
/>
<path fill="#060605" d="
  M 89.65 241.23
  L 89.54 240.54
  Q 89.68 240.84 89.65 241.23
  Z"
/>
<path fill="#060605" d="
  M 89.97 243.05
  L 89.86 242.21
  L 89.97 243.05
  Z"
/>
<path fill="#060605" d="
  M 90.13 244.06
  Q 89.89 243.58 89.97 243.05
  Q 90.33 243.47 90.13 244.06
  Z"
/>
<path fill="#060605" d="
  M 128.74 254.89
  L 127.95 254.89
  Q 128.42 254.79 128.74 254.89
  Z"
/>
</svg>
